<?xml version="1.0" encoding="iso-8859-1"?>
<!-- Generator: Adobe Illustrator 19.0.0, SVG Export Plug-In . SVG Version: 6.00 Build 0)  -->
<svg fill="white" version="1.1" id="Capa_1" xmlns="http://www.w3.org/2000/svg" xmlns:xlink="http://www.w3.org/1999/xlink" x="0px" y="0px"
	 viewBox="0 0 480.039 480.039" style="enable-background:new 0 0 480.039 480.039;" xml:space="preserve">
<g>
	<g>
		<path d="M64.02,193.388V24.02c0-13.255-10.745-24-24-24s-24,10.745-24,24v169.368c-12.499,4.411-19.056,18.12-14.645,30.619
			c3.388,9.6,12.464,16.018,22.645,16.013h32c13.255,0.007,24.006-10.732,24.013-23.987C80.038,205.852,73.62,196.776,64.02,193.388
			z M56.02,224.02h-32c-4.418,0-8-3.582-8-8s3.582-8,8-8h8v-184c0-4.418,3.582-8,8-8s8,3.582,8,8v184h8c4.418,0,8,3.582,8,8
			S60.438,224.02,56.02,224.02z"/>
	</g>
</g>
<g>
	<g>
		<path d="M464.02,193.388V24.02c0-13.255-10.745-24-24-24s-24,10.745-24,24v169.368c-12.499,4.411-19.056,18.12-14.645,30.619
			c3.388,9.6,12.464,16.018,22.645,16.013h32c13.255,0.007,24.006-10.732,24.013-23.987
			C480.038,205.852,473.62,196.776,464.02,193.388z M456.02,224.02h-32c-4.418,0-8-3.582-8-8s3.582-8,8-8h8v-184
			c0-4.418,3.582-8,8-8s8,3.582,8,8v184h8c4.418,0,8,3.582,8,8S460.438,224.02,456.02,224.02z"/>
	</g>
</g>
<g>
	<g>
		<path d="M78.664,272.032c-3.388-9.6-12.464-16.018-22.645-16.013h-32c-13.255-0.007-24.006,10.732-24.013,23.987
			c-0.005,10.181,6.413,19.257,16.013,22.645V456.02c0,13.255,10.745,24,24,24s24-10.745,24-24V302.651
			C76.519,298.24,83.076,284.532,78.664,272.032z M56.02,288.02h-8v168c0,4.418-3.582,8-8,8s-8-3.582-8-8v-168h-8
			c-4.418,0-8-3.582-8-8s3.582-8,8-8h32c4.418,0,8,3.582,8,8S60.438,288.02,56.02,288.02z"/>
	</g>
</g>
<g>
	<g>
		<path d="M478.664,272.032c-3.388-9.6-12.464-16.018-22.645-16.013h-32c-13.255-0.007-24.006,10.732-24.013,23.987
			c-0.005,10.181,6.413,19.257,16.013,22.645V456.02c0,13.255,10.745,24,24,24s24-10.745,24-24V302.651
			C476.519,298.24,483.076,284.532,478.664,272.032z M456.02,288.02h-8v168c0,4.418-3.582,8-8,8s-8-3.582-8-8v-168h-8
			c-4.418,0-8-3.582-8-8s3.582-8,8-8h32c4.418,0,8,3.582,8,8S460.438,288.02,456.02,288.02z"/>
	</g>
</g>
<g>
	<g>
		<path d="M360.02,128.02h-80c-4.418,0-8-3.582-8-8s3.582-8,8-8h88.8c4.418-0.002,7.998-3.585,7.997-8.003
			c0-0.852-0.137-1.699-0.405-2.509c-3.946-11.929-9.406-23.302-16.248-33.84c-1.467-2.263-3.975-3.634-6.672-3.648H280.02
			c-4.418,0-8-3.582-8-8s3.582-8,8-8h45.088c4.418,0.001,8.001-3.58,8.001-7.999c0-2.387-1.065-4.649-2.905-6.169
			C308.924,16.284,283.756,0.02,244.02,0.02c-34.365,0.019-67.655,11.979-94.176,33.832c-3.406,2.814-3.887,7.856-1.073,11.263
			c1.518,1.838,3.777,2.903,6.161,2.905h45.088c4.418,0,8,3.582,8,8s-3.582,8-8,8h-73.472c-2.711,0-5.237,1.373-6.712,3.648
			c-6.842,10.538-12.302,21.911-16.248,33.84c-1.387,4.195,0.888,8.72,5.083,10.107c0.822,0.272,1.683,0.409,2.549,0.405h88.8
			c4.418,0,8,3.582,8,8s-3.582,8-8,8h-80c-13.255,0-24,10.745-24,24s10.745,24,24,24h240c13.255,0,24-10.745,24-24
			S373.274,128.02,360.02,128.02z M360.02,160.02h-240c-4.418,0-8-3.582-8-8s3.582-8,8-8h80c13.255,0,24-10.745,24-24
			s-10.745-24-24-24h-77.256c2.371-5.514,5.116-10.86,8.216-16h69.04c13.255,0,24-10.745,24-24s-10.745-24-24-24h-18.984
			c19.337-10.489,40.985-15.988,62.984-16c20.042-0.349,39.743,5.216,56.64,16h-20.64c-13.255,0-24,10.745-24,24s10.745,24,24,24
			h69.04c3.1,5.14,5.845,10.486,8.216,16H280.02c-13.255,0-24,10.745-24,24s10.745,24,24,24h80c4.418,0,8,3.582,8,8
			S364.438,160.02,360.02,160.02z"/>
	</g>
</g>
<g>
	<g>
		<path d="M184.02,192.02h-64c-13.255,0-24,10.745-24,24s10.745,24,24,24h64c13.255,0,24-10.745,24-24S197.274,192.02,184.02,192.02
			z M184.02,224.02h-64c-4.418,0-8-3.582-8-8s3.582-8,8-8h64c4.418,0,8,3.582,8,8S188.438,224.02,184.02,224.02z"/>
	</g>
</g>
<g>
	<g>
		<path d="M360.02,192.02h-64c-13.255,0-24,10.745-24,24s10.745,24,24,24h64c13.255,0,24-10.745,24-24S373.274,192.02,360.02,192.02
			z M360.02,224.02h-64c-4.418,0-8-3.582-8-8s3.582-8,8-8h64c4.418,0,8,3.582,8,8S364.438,224.02,360.02,224.02z"/>
	</g>
</g>
<g>
	<g>
		<path d="M184.02,256.02h-64c-13.255,0-24,10.745-24,24s10.745,24,24,24h64c13.255,0,24-10.745,24-24S197.274,256.02,184.02,256.02
			z M184.02,288.02h-64c-4.418,0-8-3.582-8-8s3.582-8,8-8h64c4.418,0,8,3.582,8,8S188.438,288.02,184.02,288.02z"/>
	</g>
</g>
<g>
	<g>
		<path d="M360.02,256.02h-64c-13.255,0-24,10.745-24,24s10.745,24,24,24h64c13.255,0,24-10.745,24-24S373.274,256.02,360.02,256.02
			z M360.02,288.02h-64c-4.418,0-8-3.582-8-8s3.582-8,8-8h64c4.418,0,8,3.582,8,8S364.438,288.02,360.02,288.02z"/>
	</g>
</g>
<g>
	<g>
		<path d="M248.02,192.02h-16c-4.418,0-8,3.582-8,8s3.582,8,8,8h16c4.418,0,8-3.582,8-8S252.438,192.02,248.02,192.02z"/>
	</g>
</g>
<g>
	<g>
		<path d="M248.02,224.02h-16c-4.418,0-8,3.582-8,8s3.582,8,8,8h16c4.418,0,8-3.582,8-8S252.438,224.02,248.02,224.02z"/>
	</g>
</g>
<g>
	<g>
		<path d="M248.02,256.02h-16c-4.418,0-8,3.582-8,8s3.582,8,8,8h16c4.418,0,8-3.582,8-8S252.438,256.02,248.02,256.02z"/>
	</g>
</g>
<g>
	<g>
		<path d="M248.02,288.02h-16c-4.418,0-8,3.582-8,8s3.582,8,8,8h16c4.418,0,8-3.582,8-8S252.438,288.02,248.02,288.02z"/>
	</g>
</g>
<g>
	<g>
		<path d="M248.02,320.02h-16c-4.418,0-8,3.582-8,8s3.582,8,8,8h16c4.418,0,8-3.582,8-8S252.438,320.02,248.02,320.02z"/>
	</g>
</g>
<g>
	<g>
		<path d="M320.02,352.02h-36c-15.464,0-28,12.536-28,28c0,6.627-5.373,12-12,12h-8c-6.627,0-12-5.373-12-12
			c0-15.464-12.536-28-28-28h-36c-35.346,0-64,28.654-64,64c0,35.346,28.654,64,64,64h36c15.464,0,28-12.536,28-28
			c0-6.627,5.373-12,12-12h8c6.627,0,12,5.373,12,12c0,15.464,12.536,28,28,28h36c35.346,0,64-28.654,64-64
			C384.02,380.673,355.366,352.02,320.02,352.02z M320.02,464.02h-36c-6.627,0-12-5.373-12-12c0-15.464-12.536-28-28-28h-8
			c-15.464,0-28,12.536-28,28c0,6.627-5.373,12-12,12h-36c-26.51,0-48-21.49-48-48c0-26.51,21.49-48,48-48h36
			c6.627,0,12,5.373,12,12c0,15.464,12.536,28,28,28h8c15.464,0,28-12.536,28-28c0-6.627,5.373-12,12-12h36c26.51,0,48,21.49,48,48
			C368.02,442.529,346.529,464.02,320.02,464.02z"/>
	</g>
</g>
<g>
	<g>
		<path d="M160.02,384.02c-17.673,0-32,14.327-32,32c0,17.673,14.327,32,32,32s32-14.327,32-32
			C192.02,398.346,177.693,384.02,160.02,384.02z M160.02,432.02c-8.837,0-16-7.163-16-16s7.163-16,16-16s16,7.163,16,16
			S168.856,432.02,160.02,432.02z"/>
	</g>
</g>
<g>
	<g>
		<path d="M320.02,384.02c-17.673,0-32,14.327-32,32c0,17.673,14.327,32,32,32c17.673,0,32-14.327,32-32
			C352.02,398.346,337.693,384.02,320.02,384.02z M320.02,432.02c-8.837,0-16-7.163-16-16s7.163-16,16-16s16,7.163,16,16
			S328.856,432.02,320.02,432.02z"/>
	</g>
</g>
<g>
</g>
<g>
</g>
<g>
</g>
<g>
</g>
<g>
</g>
<g>
</g>
<g>
</g>
<g>
</g>
<g>
</g>
<g>
</g>
<g>
</g>
<g>
</g>
<g>
</g>
<g>
</g>
<g>
</g>
</svg>
