<?xml version="1.0" encoding="iso-8859-1"?>
<!-- Generator: Adobe Illustrator 19.0.0, SVG Export Plug-In . SVG Version: 6.00 Build 0)  -->
<svg fill="white" version="1.1" id="Layer_1" xmlns="http://www.w3.org/2000/svg" xmlns:xlink="http://www.w3.org/1999/xlink" x="0px" y="0px"
	 viewBox="0 0 512 512" style="enable-background:new 0 0 512 512;" xml:space="preserve">
<g>
	<g>
		<path d="M351.191,269.926c-4.128-8.245-14.157-11.582-22.402-7.457c-20.881,10.453-43.498,15.751-67.223,15.751
			c-23.726,0-46.342-5.3-67.222-15.751c-8.243-4.129-18.275-0.789-22.402,7.456c-4.127,8.244-0.789,18.275,7.456,22.402
			c25.562,12.796,53.208,19.284,82.168,19.284c28.96,0,56.606-6.487,82.168-19.281C351.979,288.203,355.318,278.172,351.191,269.926
			z"/>
	</g>
</g>
<g>
	<g>
		<path d="M321.307,210.159c-4.117-8.25-14.142-11.599-22.394-7.484c-23.385,11.671-51.309,11.671-74.695,0
			c-8.251-4.118-18.276-0.766-22.393,7.484s-0.767,18.276,7.483,22.394c16.362,8.165,34.31,12.248,52.259,12.248
			c17.948,0,35.897-4.083,52.258-12.248C322.075,228.435,325.424,218.409,321.307,210.159z"/>
	</g>
</g>
<g>
	<g>
		<path d="M278.261,80.792V16.703c0-9.22-7.475-16.696-16.696-16.696c-9.22,0-16.696,7.475-16.696,16.696v64.089
			c-19.433,6.892-33.391,25.45-33.391,47.215c0,27.618,22.469,50.087,50.087,50.087c27.618,0,50.087-22.469,50.087-50.087
			C311.652,106.242,297.693,87.684,278.261,80.792z M261.565,144.703c-9.206,0-16.696-7.49-16.696-16.696s7.49-16.696,16.696-16.696
			c9.206,0,16.696,7.49,16.696,16.696S270.771,144.703,261.565,144.703z"/>
	</g>
</g>
<g>
	<g>
		<path d="M512,395.123c0-27.619-22.469-50.087-50.087-50.087H183.652c-34.275,0-58.819,33.968-47.243,66.783h-11.828
			c5.702-9.832,8.984-21.231,8.984-33.391c0-36.824-29.959-66.783-66.783-66.783C29.959,311.644,0,341.603,0,378.427
			c0,17.457,6.741,33.365,17.746,45.275C6.902,432.896,0,446.606,0,461.905c0,27.618,22.469,50.087,50.087,50.087
			c18.966,0,384.439,0,411.826,0c27.618,0,50.087-22.469,50.087-50.087c0-12.817-4.838-24.524-12.784-33.391
			C507.162,419.646,512,407.939,512,395.123z M66.783,345.036c18.412,0,33.391,14.979,33.391,33.391s-14.979,33.391-33.391,33.391
			c-18.412,0-33.391-14.979-33.391-33.391S48.371,345.036,66.783,345.036z M50.087,478.601c-9.206,0-16.696-7.49-16.696-16.696
			s7.49-16.696,16.696-16.696h100.174c3.577,0,6.883-1.134,9.6-3.05l36.441,36.441C179.127,478.601,65.808,478.601,50.087,478.601z
			 M238.632,473.708l-66.783-66.783c-10.431-10.433-3.059-28.498,11.803-28.498h79.432l-24.456,24.456
			c-6.52,6.519-6.52,17.091,0,23.611c6.519,6.519,17.091,6.519,23.611,0l43.174-43.174c6.531-6.529,17.076-6.528,23.607,0
			c6.508,6.509,6.508,17.097,0,23.607c-8.156,8.156-58.505,58.505-66.783,66.783C255.707,480.237,245.161,480.236,238.632,473.708z
			 M461.913,478.601H304.568l33.391-33.391h123.954c9.206,0,16.696,7.49,16.696,16.696S471.119,478.601,461.913,478.601z
			 M461.913,411.818h-97.453c1.867-5.293,2.844-10.919,2.844-16.696c0-5.777-0.977-11.403-2.844-16.696h97.453
			c9.206,0,16.696,7.49,16.696,16.696C478.609,404.329,471.119,411.818,461.913,411.818z"/>
	</g>
</g>
<g>
</g>
<g>
</g>
<g>
</g>
<g>
</g>
<g>
</g>
<g>
</g>
<g>
</g>
<g>
</g>
<g>
</g>
<g>
</g>
<g>
</g>
<g>
</g>
<g>
</g>
<g>
</g>
<g>
</g>
</svg>
