<svg fill="white" height="512pt" viewBox="-31 0 512 512" width="512pt" xmlns="http://www.w3.org/2000/svg"><path d="m0 365.539062v146.460938h450v-146.460938c0-17.152343-9.53125-32.574218-24.875-40.25l-120.300781-60.148437c13.097656-15.320313 21.871093-34.4375 24.414062-55.449219 17.855469-5.96875 30.761719-22.851562 30.761719-42.691406 0-19.554688-12.539062-36.238281-30-42.429688 0-11.207031 0-109.421874 0-124.570312h-210v124.570312c-17.460938 6.191407-30 22.875-30 42.429688 0 19.839844 12.90625 36.722656 30.761719 42.691406 2.542969 21.011719 11.316406 40.128906 24.414062 55.449219l-120.300781 60.148437c-15.34375 7.675782-24.875 23.097657-24.875 40.25zm360 41.460938c0 8.269531-6.730469 15-15 15s-15-6.730469-15-15 6.730469-15 15-15 15 6.730469 15 15zm-210-377h150v62h-150zm-30 137c0-8.269531 6.730469-15 15-15h15v-30h150v30h15c8.269531 0 15 6.730469 15 15s-6.730469 15-15 15h-15v15c0 41.355469-33.644531 75-75 75s-75-33.644531-75-75v-15h-15c-8.269531 0-15-6.730469-15-15zm-90 198.539062c0-5.714843 3.179688-10.855468 8.292969-13.414062l81.707031-40.855469v22.242188c-34.191406 6.964843-60 37.269531-60 73.488281v45h60v-30h-30v-15c0-24.8125 20.1875-45 45-45s45 20.1875 45 45v15h-30v30h60v-45c0-36.21875-25.808594-66.519531-60-73.488281v-37.242188l19.875-9.9375c16.03125 9.929688 34.921875 15.667969 55.125 15.667969s39.09375-5.738281 55.125-15.667969l49.875 24.9375v53.3125c-17.460938 6.191407-30 22.863281-30 42.417969 0 24.8125 20.1875 45 45 45s45-20.1875 45-45c0-19.554688-12.539062-36.226562-30-42.417969v-38.3125l51.707031 25.855469c5.113281 2.558594 8.292969 7.699219 8.292969 13.417969v116.457031h-390zm0 0"/><path d="m225 242c24.8125 0 45-20.1875 45-45h-30c0 8.269531-6.730469 15-15 15s-15-6.730469-15-15h-30c0 24.8125 20.1875 45 45 45zm0 0"/></svg>